<svg width="41" height="40" viewBox="0 0 41 40" fill="none" xmlns="http://www.w3.org/2000/svg">
<path d="M31.5833 11.875C31.5833 12.22 31.8633 12.5 32.2083 12.5H33.1996L30.3458 15.3538C29.8121 15.04 29.1633 14.9 28.4621 15.08C27.7533 15.2625 27.1658 15.7725 26.8421 16.4287C26.5596 17 26.5358 17.535 26.6408 18.0225L23.4596 19.6125C22.9583 19.0375 22.2071 18.6862 21.3671 18.7587C20.4458 18.8375 19.6496 19.4588 19.2833 20.3075C19.0571 20.83 19.0446 21.3212 19.1408 21.7725L15.9608 23.3625C15.5008 22.8388 14.8346 22.5 14.0833 22.5C12.7783 22.5 11.7183 23.5037 11.6058 24.78L8.86834 25.2362C8.40584 24.1962 7.25584 23.5312 6.00084 23.8162C5.06584 24.0287 4.30709 24.8187 4.12959 25.7612C3.82584 27.3725 5.06334 28.7675 6.61209 28.75C7.90709 28.735 8.94834 27.7337 9.06084 26.4713L11.8021 26.015C12.1858 26.875 13.0383 27.4813 14.0371 27.5C14.8071 27.5138 15.5133 27.1162 15.9946 26.515C16.6146 25.7388 16.6558 25.0637 16.5208 24.4538L19.6971 22.8725C20.1483 23.3975 20.8071 23.7388 21.5508 23.75C22.5233 23.7638 23.3771 23.1638 23.8221 22.2988C24.1171 21.7263 24.1296 21.2 24.0246 20.7175L27.2058 19.1337C27.7633 19.7738 28.6296 20.1388 29.5846 19.9513C30.5058 19.77 31.2721 19.0312 31.5046 18.1225C31.6858 17.4138 31.5433 16.755 31.2196 16.2188L34.0833 13.375V14.375C34.0833 14.72 34.3633 15 34.7083 15C35.0533 15 35.3333 14.72 35.3333 14.375V11.875C35.3333 11.53 35.0533 11.25 34.7083 11.25H32.2083C31.8633 11.25 31.5833 11.53 31.5833 11.875ZM6.59834 27.5C5.90834 27.5075 5.34084 26.9537 5.33334 26.265C5.32584 25.575 5.87959 25.0075 6.56834 25C7.25834 24.9925 7.82584 25.5463 7.83334 26.235C7.84084 26.925 7.28709 27.4912 6.59834 27.5ZM14.0833 26.25C13.3946 26.25 12.8333 25.6887 12.8333 25C12.8333 24.3113 13.3946 23.75 14.0833 23.75C14.7721 23.75 15.3333 24.3113 15.3333 25C15.3333 25.6887 14.7721 26.25 14.0833 26.25ZM21.5833 22.5C20.8946 22.5 20.3333 21.9388 20.3333 21.25C20.3333 20.5612 20.8946 20 21.5833 20C22.2721 20 22.8333 20.5612 22.8333 21.25C22.8333 21.9388 22.2721 22.5 21.5833 22.5ZM29.0833 18.75C28.3946 18.75 27.8333 18.1888 27.8333 17.5C27.8333 16.8112 28.3946 16.25 29.0833 16.25C29.7721 16.25 30.3333 16.8112 30.3333 17.5C30.3333 18.1888 29.7721 18.75 29.0833 18.75ZM35.3333 6.25H5.33334C3.26209 6.25 1.58334 7.92875 1.58334 10V30C1.58334 32.0712 3.26209 33.75 5.33334 33.75H35.3333C37.4046 33.75 39.0833 32.0712 39.0833 30V10C39.0833 7.92875 37.4046 6.25 35.3333 6.25ZM37.8333 30C37.8333 31.3787 36.7121 32.5 35.3333 32.5H5.33334C3.95459 32.5 2.83334 31.3787 2.83334 30V10C2.83334 8.62125 3.95459 7.5 5.33334 7.5H35.3333C36.7121 7.5 37.8333 8.62125 37.8333 10V30Z" fill="url(#paint0_linear_3_351)"/>
<defs>
<linearGradient id="paint0_linear_3_351" x1="20.3333" y1="15.1875" x2="20.3333" y2="33.75" gradientUnits="userSpaceOnUse">
<stop stop-color="#41FEB2"/>
<stop offset="1" stop-color="#655BFA"/>
</linearGradient>
</defs>
</svg>
